<?xml version="1.0" encoding="utf-8"?>
<svg version="1.1" id="arab_world" xmlns="http://www.w3.org/2000/svg" xmlns:xlink="http://www.w3.org/1999/xlink" x="0px" y="0px" width="178.61649px" height="119.71149px" viewBox="0 0 178.61649 119.71149">
<path id="path9" fill-rule="evenodd" clip-rule="evenodd" fill="#E0E0E0" d="M 0,0 H 940 V 470 H 0 Z" />
<path id="path5989" fill-rule="evenodd" clip-rule="evenodd" fill="#E0E0E0" d="M 0,0 H 940 V 470 H 0 Z" />
<path id="sd" fill-rule="evenodd" clip-rule="evenodd" fill="#E0E0E0" d="m 122.32895,53.14857 c -0.20896,0.21144 -0.75983,1.01861 -1.09375,0.84375 -0.43778,-0.22943 -0.5939,0.35868 -0.6875,0.625 -0.18075,0.51312 -0.316,0.81045 -0.875,0.90625 -0.55374,0.0952 -0.69747,0.22473 -0.8125,0.78125 -0.25144,1.21695 -1.45489,0.28283 -2.03125,-0.0312 -0.49979,-0.27226 -1.36058,-0.0851 -1.90625,-0.0625 -0.71279,0.0295 -1.45029,0.059 -2.15625,-0.0625 0.23343,-0.21494 0.12508,-0.95759 -0.21875,-0.40625 -0.34003,0.54514 -0.79957,0.4375 -1.375,0.4375 h -4.40625 c -2.99437,0 -6.03719,-0.0312 -9.031245,-0.0312 0.0601,1.78521 0.12715,3.58886 0.15625,5.375 h -2.3125 l 0.21875,11.5625 c -0.38352,-0.119 -0.77335,-0.29372 -1.15625,-0.0937 -0.31593,0.16555 -0.61567,-0.003 -0.9375,0.15625 -0.7506,0.37143 0.0316,0.93349 -0.4375,1.53125 -0.37608,0.4787 -0.45526,0.99198 -1,1.28125 -0.34291,0.18168 0.008,1.04847 0.21875,1.25 -0.78099,0.62473 -1.27899,0.81962 -0.71875,1.875 0.21331,0.40181 -0.0473,0.58121 -0.375,0.8125 -0.35003,0.2471 -0.40562,0.55832 -0.5625,0.9375 0.30384,0.82036 0.86406,0.0477 1.375,0.34375 0.30233,0.1761 -0.13828,0.48157 0,0.71875 0.17011,0.28958 0.24985,0.66857 0.15625,1 0.0803,-0.0406 0.1666,-0.0912 0.25,-0.125 0.24305,0.39065 -0.22967,0.82314 -0.0312,1.21875 0.19657,0.39375 0.70417,0.46384 0.875,0.75 0.25078,0.42042 -0.27978,0.81012 -0.0937,1.21875 0.19222,0.42321 0.55193,0.73975 0.875,1.0625 0.5776,0.57761 1.0585,1.42312 1.0625,2.25 0.002,0.34848 0.0308,0.82643 -0.1875,1.125 -0.18881,0.25826 -0.3841,0.3498 -0.3125,0.71875 0.0818,-0.0295 0.1681,-0.064 0.25,-0.0937 0.066,0.24803 -0.0717,0.46706 -0.15625,0.6875 0.40709,0.0741 1.32147,-0.0452 1.625,0.28125 0.004,0.0987 0.0625,0.1875 0.0937,0.28125 0.30545,0.0178 0.0675,-0.34623 0.25,-0.4375 0.0719,-0.0359 0.0698,-0.18201 0.125,-0.21875 0.13735,-0.0915 0.34123,-0.06 0.46875,-0.1875 0.0569,-0.0573 0.0568,-0.2062 0.0937,-0.28125 0.0739,-0.14784 -0.17087,-0.2542 -0.125,-0.4375 0.0301,-0.11865 0.10152,-0.26563 0.15625,-0.375 0.0658,-0.1313 -0.047,-0.2025 0,-0.28125 0.0599,-0.18074 0.24919,-0.18595 0.3125,-0.3125 0.0738,-0.14847 -0.18354,-0.5356 -0.0937,-0.625 0.0968,-0.0971 0.13436,-0.2593 0.21875,-0.34375 0.13239,-0.13233 0.30564,-0.27437 0.4375,-0.40625 0.20655,-0.20653 0.008,-0.63554 0.21875,-0.84375 0.14901,-0.14902 0.63482,0.0839 0.8125,-0.0937 0.12197,-0.12202 0.822095,-0.36537 0.937495,-0.25 0.1561,0.15618 0.14291,0.67412 0.21875,0.75 0.0659,0.0656 0.28859,0.0385 0.34375,0.0937 0.10185,0.10185 0.0939,0.28143 0.15625,0.40625 0.0409,0.0829 0.14357,0.2061 0.1875,0.25 0.15843,0.15838 0.0798,0.57973 0.21875,0.71875 0.0908,0.0912 0.39542,0.21513 0.5,0.25 0.27141,0.0905 1.34678,-0.25306 1.5,-0.40625 0.0339,-0.0337 0.22082,0.0254 0.25,0.0312 0.43281,0.0865 1.0798,0.0856 1.40625,0.0312 0.16404,0.23026 0.23886,0.5513 0.40625,0.71875 0.18236,0.18233 1.41212,0.0908 1.65625,-0.0312 0.0828,-0.0413 0.053,-0.23113 0.0937,-0.3125 0.11022,-0.22038 0.43825,-0.53166 0.6875,-0.65625 0.28697,-0.14353 0.96257,-0.0251 1.125,-0.1875 0.1117,-0.11163 -0.0965,-0.71615 0.0625,-0.875 0.21321,-0.2132 0.59823,-0.37141 0.8125,-0.5 0.60722,0.14345 0.87557,0.59434 1.25,0.96875 0.20971,0.20968 0.50925,0.32174 0.6875,0.5 0.0509,0.0511 0.10993,-0.0788 0.125,-0.0937 0.0449,-0.0448 0.43821,-0.0312 0.53125,-0.0312 0.11428,0 0.42091,0.0478 0.5,-0.0312 0.40817,-0.40815 0.7514,-1.03269 1.1875,-1.46875 0.20311,-0.20316 0.21192,-0.71197 0.40625,-0.90625 0.36123,-0.36128 0.9068,-0.68908 1.0625,-1.15625 -0.47064,-0.367 0.12204,-1.44052 -0.1875,-1.75 -0.0409,-0.0407 -0.64425,-0.57441 -0.625,-0.59375 0.20652,-0.20644 1.32232,0.13672 1.46875,-0.15625 0.0958,-0.19112 -0.0242,-0.44767 0,-0.59375 0.12008,-0.0637 1.25,-0.01 1.25,0 0,0.23471 -0.22405,1.07312 -0.34375,1.3125 -0.11965,0.23925 0.27089,1.67731 0.34375,1.96875 0.0349,0.13945 -0.0822,0.6671 -0.0312,0.71875 0.10957,0.10964 0.39139,0.14509 0.53125,0.25 0.55947,0.41963 0.84366,1.21859 1.25,1.625 0.13137,0.13131 0.006,0.87522 -0.21875,0.6875 0.0449,1.32372 -0.0735,0.45469 0.71875,0.71875 0.024,-0.20076 0.0605,-0.39618 0.125,-0.59375 0.14634,-0.44956 0.36145,-0.76541 0.34375,-1.25 -0.0198,-0.54474 -0.0713,-0.92916 0.28125,-1.375 0.26788,-0.33826 0.6965,-0.0645 0.6875,0.3125 0.1885,-0.20742 0.29156,-0.35262 0.4375,-0.65625 0.36845,-0.76652 -0.17446,-0.76276 0,-0.96875 0.42559,-0.50249 0.0994,-1.38263 0.5625,-1.6875 0.44553,-0.2933 0.62536,-1.2726 0.90625,-1.71875 0.28679,-0.45514 0.65039,-0.2508 1.09375,-0.3125 0.29487,-0.0412 0.245,-0.91758 0.25,-1.125 0.0143,-0.58535 0.35019,-1.00558 0.46875,-1.5625 0.17155,-0.80506 0.0589,-1.71756 0.0312,-2.28125 -0.03,-0.60482 -0.21932,-1.33915 0,-1.75 0.30719,-0.57544 0.39448,-1.3529 0.65625,-2.0625 0.10176,-0.27584 0.2496,-0.58697 0.3125,-0.875 0.0689,-0.31376 -0.0883,-0.53464 -0.0312,-0.84375 0.0583,-0.31469 -0.008,-0.98542 0.28125,-1.15625 0.2099,-0.12403 0.7944,0.12775 0.875,-0.15625 0.15688,-0.55187 0.0792,-0.61339 0.6875,-0.84375 0.33609,-0.12743 1.09628,-0.41864 1.28125,-0.71875 0.1407,-0.22828 0.51015,-0.8466 0.59375,-0.9375 -0.0518,-0.41793 -0.76075,-0.36803 -0.78125,-0.75 -0.28958,0.26044 -1.09595,-1.08215 -1.53125,-1.15625 -0.7534,-0.12805 -0.99865,-1.58658 -1.03125,-2.21875 -0.0465,-0.90036 -0.30469,-1.70858 -0.1875,-2.59375 0.0521,-0.39189 -0.0941,-0.83219 -0.25,-1.1875 -0.21579,-0.49172 0.23679,-0.7349 0.34375,-0.25 -0.0291,-0.63713 -0.7614,-1.03375 -0.9375,-1.625 -0.21269,-0.71433 0.0954,-0.97771 -0.5625,-1.4375 -0.49638,-0.34693 -0.82505,-1.01028 -1.34375,-1.28125 -0.57946,-0.30291 -1.02937,-0.53077 -1.1875,-1.21875 z" />
<path id="ly" fill-rule="evenodd" clip-rule="evenodd" fill="#E0E0E0" d="m 61.650915,34.60423 c -0.29857,-0.25702 0.34074,-0.55962 0.50599,-0.6362 0.4973,-0.23098 0.76549,-0.36337 1.06685,-0.85199 0.24214,-0.39282 0.48512,-0.58441 0.39056,-1.0904 -0.0815,-0.43622 -0.28825,-0.87588 -0.2436,-1.33102 0.0614,-0.62411 0.81882,-0.46422 0.93973,-0.91166 0.13034,-0.48228 0.5235,-0.73073 0.92671,-0.92254 0.30902,-0.147 1.31271,-0.42103 1.32077,-0.84827 0.004,-0.21393 -0.20555,-0.34632 -0.18323,-0.57358 0.0403,-0.41607 0.0564,-0.834 0.0977,-1.25008 0.40088,0.27904 0.9388,0.42011 1.36945,0.68488 0.45204,0.2778 0.96516,0.37236 1.49098,0.31469 0.53203,-0.0583 0.92361,-0.3953 1.47084,-0.19749 0.48738,0.17641 1.0036,0.1947 1.47796,0.39685 0.42227,0.18013 0.76301,0.50536 1.18901,0.67217 0.37266,0.14603 0.87586,-0.007 1.20822,0.22292 0.39158,0.27066 0.46475,0.7351 0.54009,1.16978 0.0964,0.55621 0.31469,0.99957 0.74813,1.37317 0.78285,0.67465 1.74987,0.51653 2.69146,0.68736 0.94532,0.17176 2.29089,0.60117 3.04801,1.21443 0.6052,0.49048 1.16513,1.3186 2.03046,1.24078 0.99988,-0.0902 2.0689,-0.97167 2.29275,-1.97558 0.10324,-0.46351 -0.21021,-0.82409 -0.35221,-1.24171 -0.15688,-0.46041 -0.2716,-0.98965 -0.11378,-1.46618 0.28957,-0.87432 1.72909,-1.95884 2.64185,-1.98953 0.4725,-0.0158 0.74844,-0.35779 1.1856,-0.39127 0.44584,-0.0341 0.92144,-0.0422 1.35673,0.0645 0.50909,0.12432 0.95307,0.37049 1.4358,0.55962 0.57234,0.22416 0.42073,0.30198 0.44894,0.803 0.0223,0.40585 0.67775,0.49173 0.97012,0.51343 0.56737,0.0428 0.93446,0.29981 1.45874,0.45173 0.52055,0.15099 1.06685,-0.0236 1.59516,0.0732 0.29949,0.0546 0.75091,0.6517 0.64426,0.96546 -0.11224,0.33113 -0.51622,0.41546 -0.57234,0.78813 -0.0778,0.51467 0.25083,0.89632 0.34136,1.37503 0.10169,0.53854 -0.24549,1.01566 -0.42841,1.48382 -0.1944,0.49669 0.31456,1.08667 0.3992,1.60072 0.14355,0.87617 0.29975,1.70443 0.35463,2.60293 l 0.55292,23.34007 c -0.77293,0 -1.54617,0 -2.3191,0 0.0214,0.44615 0.005,0.89385 0.0434,1.33938 l -18.49431,-10.46719 -4.19414,2.00959 c -0.3553,0.097 -0.79069,-0.48273 -0.9978,-0.68891 -0.86563,-0.86284 -1.80527,-1.03926 -2.958,-1.30124 -0.41174,-0.0936 -0.95028,-0.14138 -1.31705,-0.36895 -0.29051,-0.18044 -0.42795,-0.68926 -0.54825,-0.9838 -0.35314,-0.86532 -0.78316,-1.10079 -1.63019,-1.41952 -0.28121,-0.10572 -0.55023,-0.34457 -0.8581,-0.33651 -0.30136,0.008 -0.62659,0.34229 -0.90935,0.0366 -0.22974,-0.24803 -0.62659,-0.88547 -0.63248,-1.22869 -0.0124,-0.71805 -0.0819,-0.98034 -0.47685,-1.59174 -0.30415,-0.47127 -1.3155,-1.30838 -0.8802,-1.93559 0.50227,-0.72363 1.27055,-0.44677 0.94128,-1.6336 -0.16463,-0.59373 -0.28306,-1.0498 -0.0797,-1.65221 0.17425,-0.51622 0.27749,-0.94221 0.0868,-1.47579 -0.20028,-0.56117 -0.0446,-1.12297 0.006,-1.69313 0.0595,-0.67589 -0.0415,-1.35767 -0.26601,-1.99604 -0.19347,-0.54753 -0.47343,-1.06313 -0.81293,-1.53377" />
<path id="ye" fill-rule="evenodd" clip-rule="evenodd" fill="#E0E0E0" d="m 164.06971,70.422275 c -0.75216,-0.0279 -0.32666,-1.569094 -1.07261,-1.656835 0.33465,-0.531493 -0.90604,-2.180549 -1.11959,-2.762173 l -0.87047,-2.011775 c -2.20901,0.434084 -4.42837,0.909445 -6.60231,1.203171 -1.81387,0.559586 -2.72914,1.461044 -3.13938,2.442828 -0.37856,0.565513 -0.58102,1.99356 -1.48851,1.938683 -0.6176,-0.03721 -0.55032,-0.963296 -1.14436,-0.893227 -0.74874,0.08836 -1.36138,0.07441 -2.12036,-0.03224 -0.43065,-0.06046 -0.87215,-0.367088 -1.29411,-0.367088 -0.46723,0 -0.9326,0.04496 -1.39704,0.08898 -0.57017,0.05395 -1.05166,0.31004 -1.6426,0.277486 -0.32492,-0.01798 -0.44553,-0.37949 -0.77758,-0.420725 -0.31748,-0.03969 -0.56179,0.174553 -0.6948,0.443048 -0.14541,0.292988 -0.19192,0.648295 -0.13704,0.970117 0.0353,0.208347 0.3274,0.415144 0.16866,0.628762 -0.15006,0.202456 -0.26911,0.410493 -0.42351,0.621321 -0.0825,0.115335 -0.18634,0.206177 -0.31128,0.272836 -0.29764,0.148819 -0.14603,0.261984 -0.0846,0.588457 0.0967,0.517147 -0.098,0.756808 -0.19006,1.22807 -0.0853,0.436227 0.2809,0.815407 0.23935,1.249153 -0.0828,-0.07441 -0.52738,-0.08588 -0.45328,0.08743 -0.0158,-0.03628 0.44863,0.225089 0.4477,0.223849 0.24865,0.265395 0.34167,0.540091 0.42631,0.887336 0.1668,0.680849 0.17982,1.439828 0.39375,2.102075 0.0877,0.271905 0.30601,0.475292 0.40956,0.740376 0.12433,0.319652 0.007,0.666278 0,0.99337 -0.0127,0.647055 0.76983,1.191486 0.55807,1.848772 0.28555,0.02201 0.47809,-0.138278 0.76704,-0.02294 0.30757,0.122776 0.51901,0.224159 0.85789,0.15688 0.69914,-0.138588 1.01011,-0.627212 1.73901,-0.244932 -0.0375,-0.198426 0.17394,-0.399952 0.24525,-0.111304 0.1206,-0.132698 0.19067,-0.286788 0.28802,-0.434367 0.15378,-0.23346 0.40337,-0.22819 0.60923,-0.38383 0.45886,-0.346625 0.51095,-0.696041 1.14281,-0.84114 0.58939,-0.135488 1.21412,-0.161221 1.81529,-0.106034 0.35407,0.03224 0.94779,-0.373909 1.30248,-0.474362 0.52924,-0.149749 0.79122,-0.607679 1.2569,-0.865633 0.14293,-0.07906 0.34446,-0.257954 0.49917,-0.30415 0.17083,0.0056 0.3336,0.0462 0.48862,0.121226 0.17487,0.0084 0.34601,-0.01271 0.51281,-0.06294 1.12483,-0.181064 1.37782,-1.344956 2.38886,-1.841331 0.46971,-0.23067 0.88455,-0.288958 1.3865,-0.376699 0.61854,-0.107894 1.13134,-0.522728 1.73995,-0.667827 0.42321,-0.101074 0.85199,-0.180754 1.26249,-0.328953 0.41018,-0.1482 0.5559,-0.474982 0.90252,-0.652016 0.28772,-0.146959 0.90842,-0.128666 0.99678,-0.519317 0.10263,-0.45266 -0.21175,-0.864393 -0.0474,-1.326044 0.33112,-0.932912 1.47021,-0.896017 2.16532,-1.406343" />
<path id="dz" fill-rule="evenodd" clip-rule="evenodd" fill="#E0E0E0" d="m 20.241905,41.97079 0.15812,-3.37076 c -0.14606,-0.90638 1.24357,-1.20543 1.74398,-1.66119 0.24809,-0.22596 0.65363,-0.68765 1.0355,-0.66386 0.33221,0.0207 0.40907,-0.47984 0.84583,-0.56452 0.71101,-0.13787 1.07562,0.55159 1.50317,-0.39063 0.13269,-0.29175 0.57565,-0.16959 0.83019,-0.20307 0.45824,-0.0608 0.91989,-0.12312 1.3524,-0.2831 0.86873,-0.3212 0.90463,-1.25417 1.64532,-1.64544 0.30539,-0.16153 0.70509,-0.17946 1.02723,-0.29851 0.39654,-0.14696 0.65697,-0.59156 1.06592,-0.67372 0.14975,-0.0301 0.95557,-0.0956 0.626,-0.5203 -0.213,-0.27439 -0.55159,-0.37448 -0.11444,-0.77412 -0.62535,-0.17176 -0.0608,-0.82719 0.3981,-0.78874 0.60705,0.0508 1.16699,-0.16556 1.38216,-0.73387 0.41235,-1.08855 3.22225,-0.12433 4.0237,-0.33019 -0.91896,-0.41476 0.67121,-0.92124 0.17176,-1.3062 -0.23584,-0.1818 -0.49978,-0.34229 -0.69139,-0.57482 -0.22199,-0.2688 -0.10634,-0.65418 -0.3243,-0.98345 -0.22788,-0.34414 -0.10157,-0.62735 -0.0358,-0.96995 0.0617,-0.3212 -0.18615,-0.32509 -0.15142,-0.63668 0.0325,-0.29112 0.0282,-0.64184 0.0318,-0.93172 0.005,-0.38911 -0.25411,-0.70157 0.13158,-1.00355 -0.40088,-0.1637 -0.2387,-0.38716 -0.29668,-0.68697 -0.0772,-0.39933 -0.76974,-0.52893 -0.92135,-0.93973 0.74255,-0.002 1.05991,-0.18208 1.69084,-0.50452 0.2747,-0.14045 0.4477,-0.14076 0.61357,-0.43033 0.14665,-0.25641 0.25733,-0.47158 0.52986,-0.6173 0.15378,-0.0825 0.45173,-0.32182 0.61419,-0.19346 0.21083,0.16649 0.47684,-0.12278 0.61698,-0.25113 0.36399,-0.33268 0.86377,0.50474 1.23582,-0.26044 0.49886,-1.0253 2.21803,-1.46897 3.22504,-1.58492 0.71682,-0.0825 1.44107,-0.27966 2.16347,-0.23098 0.53885,0.0363 0.90996,-0.65078 1.37751,-0.38632 0.20338,0.11503 0.15719,0.0505 0.2347,-0.0775 0.017,-0.0279 0.82501,-0.0161 0.94531,-0.0639 0.69821,-0.27687 1.40324,-0.17239 2.13742,-0.19285 0.61171,-0.017 0.75712,0.10976 1.2228,0.46103 0.59497,0.44863 0.80145,-0.21486 1.31736,-0.2781 0.16587,-0.0202 1.19521,-0.0648 1.13878,-0.36957 -0.10169,-0.54877 0.64768,-0.21083 0.82595,-0.0911 0.37236,0.24958 0.9326,0.37576 1.31426,0.0707 0.20959,-0.16773 0.0729,-0.386 0.47188,-0.28647 0.28338,0.0707 0.50568,0.27903 0.81386,0.2626 -0.26106,0.43127 0.38631,0.28028 0.59094,0.22695 0.40832,-0.10634 0.84951,-0.007 1.2414,-0.13797 0.0294,0.55622 -0.67558,0.82874 -0.98283,1.18312 0.8368,0.18044 0.0341,1.35704 0.20308,1.89621 0.2936,0.93663 0.17114,1.64445 -0.0264,2.56837 -0.16247,0.76022 -1.00857,1.3524 -1.57377,1.85125 -0.32957,0.29082 -0.16928,1.05042 0.0232,1.37255 0.31128,0.52118 0.16959,1.08917 0.81107,1.33287 0.87586,0.33236 0.61884,1.442 1.3248,1.9703 0.3274,0.24525 0.71371,0.42259 0.99089,0.73046 0.37453,0.41638 0.4294,1.09878 0.51653,1.62709 0.17982,1.09134 0.69759,2.30391 0.69759,3.40425 0,0.29702 -0.62442,0.1834 -0.22168,0.72039 0.38972,0.52056 0.71235,1.13252 0.84114,1.77295 0.44332,2.20451 -0.20829,2.19088 0.12401,3.32116 0.15856,0.53928 0.16696,0.9335 -0.0426,1.4584 -0.23659,0.59248 -0.0208,1.14633 0.10781,1.73758 0.19408,0.89385 -0.20345,0.90805 -0.83873,1.38799 -0.72394,0.54754 0.47964,1.61095 0.79371,2.09399 0.58721,0.90284 0.23408,1.97465 1.01507,2.81765 0.29981,0.32368 0.64457,-0.0645 0.96454,-0.0403 0.40491,0.0307 0.84424,0.33608 1.22435,0.47405 0.86749,0.315 1.15893,1.04298 1.47889,1.86706 0.15192,0.39035 0.30508,0.43747 -0.11782,0.67744 -4.40046,2.80674 -8.83953,5.61493 -12.5895,9.26556 -0.2157,0.31402 -0.91338,1.09879 -1.45533,1.39829 -0.41124,0.22727 -1.01631,0.24803 -1.46959,0.34197 -0.61605,0.12743 -1.23365,0.24834 -1.84908,0.37887 -0.30881,0.0654 -3.01484,0.99523 -2.89857,0.0375 0.0409,-0.33763 0.28213,-0.46847 0.24896,-0.84238 -0.0127,-0.14355 0.0304,-0.89754 -0.11912,-0.97226 -0.45483,-0.22757 -1.02288,-0.33171 -1.52484,-0.42814 -0.24741,-0.0477 -0.57978,-0.677 -0.76871,-0.63062 -1.08431,0.26616 -1.25492,-0.81441 -1.44982,-0.97606 -0.23026,-0.19098 -0.62752,-0.20835 -0.83835,-0.36864 -0.23718,-0.18013 -0.033,-0.62755 -0.1756,-0.86938 -0.17921,-0.30414 -0.49036,-0.56889 -0.78211,-0.74158 -0.49979,-0.29578 -0.96795,-0.64706 -1.42588,-1.00267 -1.13785,-0.88331 -2.25585,-1.79297 -3.38843,-2.68309 -4.36785,-3.43401 -8.72981,-6.85531 -13.29981,-10.01927 -1.09041,-0.7565 -2.1864,-1.50215 -3.28643,-2.24222" />
<path id="jo" fill-rule="evenodd" clip-rule="evenodd" fill="#E0E0E0" d="m 119.93574,36.41239 c -0.0428,-0.74844 0.25857,-1.46122 0.26571,-2.20532 0.008,-0.8554 0.39003,-1.48975 0.49358,-2.30391 0.0434,-0.33919 -0.0546,-0.68519 -0.0279,-1.02965 0.0254,-0.32554 0.13378,-0.64581 0.14587,-0.96298 0.0248,-0.66473 -0.0662,-1.4631 -0.0907,-2.13403 -0.0205,-0.56954 0.69018,-0.39435 1.0148,-0.16988 0.53482,0.36957 1.01826,0.92946 1.73725,0.78808 0.72394,-0.14262 1.39013,-0.82343 1.98881,-1.22245 0.76518,-0.50971 1.52912,-1.07336 2.33213,-1.51951 0.24772,0.79371 0.57264,1.55982 0.84641,2.34422 -0.27594,0.0291 -0.0958,0.40584 0.0819,0.45142 0.28152,0.0722 0.6367,0.028 0.18125,0.50573 -1.42882,0.87345 -2.85988,1.33643 -4.57735,1.76483 l 2.56075,2.68717 c -0.23036,0.11316 -0.83943,0.0994 -1.00344,0.30584 -0.18851,0.23749 0.0251,0.71698 -0.17648,0.95447 -0.33825,0.3984 -1.19207,0.0592 -1.63047,0.4777 -0.5001,0.47747 -0.66364,1.3751 -1.37798,1.65631 -0.64643,0.25392 -2.10895,-0.21845 -2.76407,-0.38804" />
<path id="so" fill-rule="evenodd" clip-rule="evenodd" fill="#E0E0E0" d="m 136.4575,108.96188 c 0,-0.43623 -0.11254,-1.03957 0.0757,-1.44789 0.17921,-0.38879 0.54496,-0.68895 0.79082,-1.0393 0.49235,-0.70007 0.91937,-1.95321 1.66564,-2.4037 0.68115,-0.41143 1.47827,-0.14541 2.07448,-0.78565 0.67712,-0.72704 1.31798,-1.20202 2.34266,-1.35022 0.76642,-0.11069 2.11355,0.43436 2.6431,-0.26757 l 6.72478,-7.951917 c -0.81293,0 -1.65624,0.138278 -2.45552,-0.06697 -0.90594,-0.23253 -1.77096,-0.669067 -2.64651,-0.99523 -0.90253,-0.336084 -1.80041,-0.684879 -2.70107,-1.025924 -0.8337,-0.315621 -1.5654,-0.53606 -2.20532,-1.177534 -0.21393,-0.214858 -0.28338,-0.327713 -0.58009,-0.406463 -0.30198,-0.0803 -0.41948,-0.548462 -0.56055,-0.796184 -0.23935,-0.420415 -0.39871,-0.76053 -0.7379,-1.131338 -0.40429,-0.442428 -0.87989,-1.009802 -0.69573,-1.668018 0.20215,-0.722394 0.83485,-1.356468 1.11699,-2.068631 0.74471,0.415455 1.15499,1.407935 1.66439,2.050649 0.6362,0.802385 1.6057,1.024994 2.58945,0.700691 0.3767,-0.124016 0.8644,-0.4601 1.18622,-0.697591 0.5683,-0.419795 0.7289,-0.349106 1.42836,-0.234081 0.7227,0.119056 1.04793,0.270356 1.72289,-0.150679 0.34074,-0.212688 1.12266,-1.005772 1.56168,-0.849511 0.48366,0.171762 0.81726,0.193155 1.3372,0.01426 0.31345,-0.107894 0.61047,-0.266635 0.93601,-0.338875 0.37267,-0.08309 0.62194,0.07906 0.97725,0.114405 0.58226,0.05829 1.02809,-0.287097 1.5316,-0.492034 0.5249,-0.213618 1.12204,-0.119056 1.65128,-0.387861 0.44056,-0.223849 0.48521,-0.799284 0.85974,-0.983448 0.36306,-0.178894 1.53563,0.132077 1.39146,0.656046 -0.18695,0.678678 -0.31283,1.092582 -0.18788,1.812186 0.0865,0.501336 0.21733,1.22001 -0.22075,1.60446 0.29144,0.109444 0.53234,0.04154 0.46816,-0.267875 0.14448,0.09642 0.30167,0.163391 0.47126,0.200906 -0.0967,0.480873 -1.18715,-0.177963 -1.19118,0.666277 -0.003,0.68953 0.0549,1.395183 -0.13703,2.071071 -0.16371,0.577295 -0.51095,1.019103 -0.83742,1.503697 -0.38011,0.565513 -0.33578,1.403243 -0.80146,1.947984 -0.18075,0.211448 -0.43002,0.265395 -0.55528,0.544431 -0.12464,0.277487 -0.0167,0.590627 -0.12061,0.884236 -0.23749,0.669687 -0.7165,1.201407 -1.0501,1.818388 -0.44429,0.820987 -0.48026,1.724755 -0.82719,2.573646 -0.35252,0.862841 -0.90191,1.625231 -1.4079,2.401891 -0.49079,0.7537 -0.81602,1.62678 -1.37782,2.33057 -0.6238,0.78161 -1.24915,1.56105 -1.88504,2.33275 -1.2783,1.55144 -2.57799,2.81237 -4.27205,3.90248 -0.70968,0.45699 -1.41596,0.93167 -2.00875,1.53811 -0.66752,0.6824 -1.43084,1.35611 -2.03418,2.09339 -0.59714,0.72984 -1.22497,1.44014 -1.81498,2.17276 -0.2874,0.35686 -0.53885,0.74038 -0.8185,1.10344 -0.17301,0.22447 -0.69108,1.0346 -0.78317,0.5621 0,0.76766 -0.50136,1.50554 -0.96425,2.08501 0.0397,-0.60217 -0.54146,-1.10013 -0.95462,-1.69469 -0.47172,-0.67881 -0.3966,-1.14627 -0.40435,-1.93254 -0.0202,-2.37708 0.026,-4.69796 0.026,-7.07411" />
<path id="xs" fill-rule="evenodd" clip-rule="evenodd" fill="#E0E0E0" d="m 152.77463,93.715633 c -0.81293,0 -1.65624,0.138278 -2.45552,-0.06697 -0.90594,-0.23253 -1.77096,-0.669067 -2.64651,-0.99523 -0.90253,-0.336084 -1.80041,-0.684879 -2.70107,-1.025924 -0.8337,-0.315621 -1.5654,-0.53606 -2.20532,-1.177534 -0.21393,-0.214858 -0.28338,-0.327713 -0.58009,-0.406463 -0.30198,-0.0803 -0.41948,-0.548462 -0.56055,-0.796184 -0.23935,-0.420415 -0.39871,-0.76053 -0.7379,-1.131338 -0.40429,-0.442428 -0.87989,-1.009802 -0.69573,-1.668018 0.20215,-0.722394 0.83485,-1.356468 1.11699,-2.068631 0.74471,0.415455 1.15499,1.407935 1.66439,2.050649 0.6362,0.802385 1.6057,1.024994 2.58945,0.700691 0.3767,-0.124016 0.8644,-0.4601 1.18622,-0.697591 0.5683,-0.419795 0.7289,-0.349106 1.42836,-0.234081 0.7227,0.119056 1.04793,0.270356 1.72289,-0.150679 0.34074,-0.212688 1.12266,-1.005772 1.56168,-0.849511 0.48366,0.171762 0.81726,0.193155 1.3372,0.01426 0.31345,-0.107894 0.6105,-0.266555 0.93601,-0.338875 0.10839,-0.02409 0.20633,-0.02759 0.29947,-0.01941 l 0.0245,7.306765 -1.28434,1.554081 z" />
<path id="mr" fill-rule="evenodd" clip-rule="evenodd" fill="#E0E0E0" d="m 0.17609666,59.471953 c -0.06325,-0.426925 -0.02666,-0.721678 0.143921,-1.132652 0.04768,-0.114904 0.206301,-0.392037 0.506606,-0.407629 l 8.64498404,-0.0099 c 0.439668,-0.231622 0.137627,-2.142154 0.108328,-2.87753 -0.05364,-0.739136 -0.128357,-1.220583 0.4641933,-1.781381 0.49622,-0.469631 0.479849,-0.34993 2.056374,-0.994523 l 0.346316,-6.768888 7.713529,-0.09042 0.103677,-3.43243 c 2.936704,1.975888 5.818624,4.01105 8.651464,6.133277 -1.362318,0 -2.735363,0 -4.097371,0 l 1.681504,22.605343 c 0.138402,0.369732 0.519101,0.529106 0.552958,0.615492 0.225182,0.574945 -0.07122,0.748773 -0.09246,1.191805 -0.0248,0.519163 -0.07611,0.98676 -0.227383,1.042493 l -4.925862,0.0059 c -2.797961,0.09682 -3.996422,0.48006 -4.243711,-0.347432 -0.119365,0.749058 -1.228969,0.87153 -1.776222,0.654186 -0.864269,-0.343255 -1.41611,-0.198566 -1.770331,0.774481 -0.201154,-0.332174 -0.494019,-0.615437 -0.794014,-0.904698 -0.355461,-0.342753 -0.698118,-0.52657 -0.886902,-0.421897 -0.709652,0.393466 0.280804,2.371921 -1.462182,2.246984 0.009,0.03167 -0.470083,-0.33888 -0.596983,-0.581493 -0.156787,-0.299797 -0.3377893,-0.20427 -0.6386213,-0.461052 -0.325853,-0.27814 -0.302941,-0.731984 -0.570227,-0.909662 -0.715697,-0.47576 -0.43201,-0.481698 -0.498483,-0.80432 -0.08188,-0.397279 -0.486237,-0.903259 -0.6886,-0.90617 -1.053022,-0.01516 -1.128486,-0.869683 -1.811319,-1.198682 -0.344486,-0.16598 -0.644729,-0.253685 -1.109139,-0.268858 -0.723262,-0.02363 -0.972008,0.683202 -2.632089,0.559242 -0.349942,-0.02614 -0.30325,-0.259867 -0.601292,-0.17522 -0.289361,0.105916 -0.6296,1.037216 -0.74493504,1.281323 0,-1.61283 1.06164104,-2.928332 1.21480104,-4.509229 0.09208,-0.951824 -0.03937,-1.75669 -0.158741,-2.688671 -0.0431,-0.336084 -0.03224,-0.704722 -0.245862,-0.98965 -0.186334,-0.248652 -0.511257,-0.425375 -0.545671,-0.76394 0.248652,0.07751 0.522418,-0.106964 0.492964,-0.379489 -0.168042,0.04496 -0.302289,0.171142 -0.359647,0.334844 0.06108,-0.323683 0.322132,-0.550942 0.464131,-0.83525 0.09177,-0.183854 -0.04124,-0.477772 0.06635,-0.600858 0.485213,-0.555593 -0.257644,-1.540901 -0.440568,-2.090913 -0.07565,0.132697 -0.127427,0.274076 -0.15502,0.424135 -0.49234504,-0.372669 -0.37483904,-1.143429 -0.87121404,-1.517958 -0.07906,0.329263 -0.198116,0.648604 -0.267255,0.981278" />
<path id="iq" fill-rule="evenodd" clip-rule="evenodd" fill="#E0E0E0" d="m 127.79496,25.65274 c 1.35261,-0.66336 2.54075,-1.31085 3.74392,-2.13731 0.38247,-0.26272 0.79504,-0.58783 1.01489,-0.92341 0.42218,-0.64441 0.0856,-1.49625 0.16987,-1.73738 0.009,-1.00182 0.2791,-1.12574 0.22159,-1.60711 -0.0642,-0.5381 -0.82995,-1.48273 -0.23892,-1.94325 0.33816,-0.26349 0.75805,-0.25246 1.10709,-0.54375 0.29308,-0.24459 1.08136,-0.88496 0.84753,-1.14348 -0.1069,-0.11819 0.1074,0.0111 0.26769,-0.0376 0.26477,-0.08 0.35112,-0.32893 0.46636,-0.54003 0.11314,-0.20719 1.29234,-0.0156 1.55082,0.0837 0.20463,0.0786 0.41112,0.15285 0.6266,0.19719 0.35437,0.0732 0.46041,-0.15615 0.76859,-0.21331 0.77714,-0.14414 0.24666,0.8742 0.68736,0.83432 0.32107,-0.0291 0.4485,-0.51522 0.80195,-0.50189 0.44863,0.0167 0.43269,0.77907 0.62957,1.04291 0.0933,0.12526 0.2151,0.10325 0.29292,0.26013 0.0949,0.1916 -0.031,0.4642 0.13034,0.62187 0.33999,0.33228 1.08741,0.65967 0.78217,1.23353 0.5045,-0.11285 0.7117,0.34011 0.93664,0.42525 0.43011,0.16283 0.43653,-0.17833 1.36386,0.067 -0.0809,0.34849 -0.48571,0.26769 -0.63111,0.53712 -0.24618,0.45514 0.44937,0.79358 0.48936,1.20717 0.0524,0.54598 -0.61481,-0.0543 -0.59558,0.49917 0.008,0.24927 -0.26137,0.20729 -0.3302,0.44199 -0.0778,0.2654 0.053,0.46302 0.0986,0.70764 -0.16867,-9.3e-4 -0.32493,-0.0456 -0.46848,-0.13425 -0.0378,0.2245 -0.1938,0.39528 -0.0167,0.58102 0.19303,0.20242 0.33791,0.2889 0.23135,0.62076 -0.10166,0.31656 -0.38519,0.38842 -0.11266,0.6349 0.23346,0.21083 0.43861,0.46301 0.701,0.6393 0.26211,0.17611 1.62752,1.3462 0.84951,1.56478 0.30334,0.074 0.22636,0.42706 0.47653,0.36888 0.35952,-0.0836 0.56089,0.14516 0.84895,0.30781 0.52921,0.29882 0.8674,0.97772 1.59987,1.03479 0.34728,0.0271 0.98736,1.15845 1.29405,1.42948 0.46391,0.40996 0.17945,0.83345 0.0629,1.39741 -0.0558,0.26943 -0.0418,1.03436 0.35754,1.06289 0.14013,0.0102 0.37453,-0.0189 0.48428,0.1209 0.14169,0.17952 0.14104,0.54143 0.10876,0.76079 -0.0717,0.48734 0.18258,0.63014 0.72736,1.02269 0.27469,0.19796 0.21259,0.8122 0.60191,0.90626 -0.20122,0.0152 -1.40089,-0.15583 -1.42755,-0.37534 0.16525,0.39003 -0.52081,0.0771 -0.78899,0.0653 -0.38786,-0.0167 -0.88938,0.0749 -1.06505,0.44807 -0.38073,0.8089 -0.31246,2.4204 -1.60446,2.2726 l -3.26082,-0.37303 c -1.09144,-0.15613 -1.1324,-0.72981 -2.13079,-1.35731 -2.76106,-2.03078 -5.40583,-4.46436 -8.49737,-5.81864 -1.11088,-0.48664 -2.09739,-0.44524 -3.10118,-0.66664 0.62923,-0.68187 -0.12864,-0.38137 -0.3173,-0.67144 -0.0468,-0.0721 -0.0859,-0.21562 -0.0453,-0.28817 0.15781,-0.18106 0,-0.36528 -0.097,-0.62944 -0.2192,-0.58473 -0.42652,-1.1596 -0.61223,-1.75488" />
<path id="eh" fill-rule="evenodd" clip-rule="evenodd" fill="#E0E0E0" d="m 0.17608466,59.47196 c -0.36709,-0.64674 0.17734,-1.74398 0.28896,-2.4146 0.0766,-0.45855 0.1947,-0.88857 0.44025,-1.28852 C 1.2026247,55.28393 1.7467447,55.283 1.9293647,54.67687 c 0.0936,-0.31066 0.0877,-0.78905 0.39654,-0.97445 0.17517,-0.1048 0.0716,-0.45669 0.20835,-0.65729 0.21858,-0.32089 1.09878,-1.41657 0.85385,-1.83296 -0.16463,0.10604 -0.30322,0.25392 -0.39995,0.42414 0.38476,-0.84641 1.3589,-1.46929 1.99883,-2.12254 0.8523,-0.87028 0.68767,-1.76971 1.1025,-2.83718 0.3395,-0.87277 0.60272,-1.83606 1.4513,-2.31941 0.93508,-0.53265 1.44358,-0.96696 1.83079,-1.99697 0.24611,-0.65474 0.7120103,-1.58406 0.55045,-1.39344 l 10.3861103,-0.0839 -0.14792,4.52519 -7.70653,0.0889 -0.35468,6.76912 c -0.45855,0.33081 -1.11026,0.36708 -1.58927,0.66503 -0.7208403,0.44801 -1.0119703,0.92733 -0.9549203,1.7787 0.0332,0.49483 0.41297,3.07282 -0.11255,3.22164 H 0.86995466 c -0.65791,3.1e-4 -0.76301,1.07491 -0.69387,1.54059" />
<path id="sy" fill-rule="evenodd" clip-rule="evenodd" fill="#E0E0E0" d="m 120.67333,25.92062 c 0.19442,-0.24632 0.56886,-0.75886 0.91462,-0.82595 -0.52769,-0.49235 0.22633,-0.80208 0.66937,-0.66969 -0.38941,-0.47312 0.1909,-0.5306 0.32499,-0.98277 0.0743,-0.25056 -0.23706,-0.75734 -0.52422,-0.81057 -0.32746,-0.0607 0.29606,-0.5306 -0.21138,-0.38829 -0.84561,0.23713 -0.90789,-0.30205 -0.94705,-0.73957 -0.0356,-0.39761 0.22168,-1.1239 -0.13549,-1.41658 -0.28617,-0.2347 -0.0638,-0.85862 -0.0747,-1.20183 -0.008,-0.25764 0.47089,0.14726 0.56297,0.19284 0.007,0.0341 0.11726,-0.22877 0.32071,-0.35177 0.25107,-0.15178 0.0814,-0.49328 0.12544,-0.73046 0.21858,0.0527 0.4508,-0.01 0.66969,-0.022 -0.1748,-0.35872 -0.28902,-0.45173 -0.33919,-0.88331 -0.0183,-0.15706 -0.004,-0.60073 0.2161,-0.65561 0.16556,-0.0415 0.33187,-0.0431 0.46364,0.0264 0.3553,0.18696 0.42506,0.50436 0.79122,0.44731 0.44677,-0.0697 0.74304,-0.12271 1.16935,-0.30687 0.43716,-0.18882 0.75743,-0.45111 1.24822,-0.38073 0.36244,0.0518 0.57544,0.3093 0.88207,0.45284 0.3491,0.16371 1.03268,0.0956 1.41093,0.063 0.96537,-0.0831 1.6549,-0.63454 2.52906,-0.98413 0.88374,-0.35343 1.84921,0.14236 2.75608,-0.21964 0.46295,-0.18479 1.14253,-0.89218 1.20996,0.21405 0.0158,0.25765 -0.61264,0.78007 -0.7937,0.95927 -0.32834,0.32523 -0.69449,0.30229 -1.06437,0.51932 -0.79371,0.46599 0.0378,1.47486 0.10014,2.03169 0.0369,0.32927 -0.16215,0.73325 -0.18602,1.07367 -0.035,0.50692 9e-5,1.32696 -0.003,1.82891 -0.006,1.17429 -4.95033,3.42041 -7.45955,5.13801 -0.68326,0.46771 -1.78862,1.59268 -2.6772,0.97074 -0.32337,-0.22602 -0.55627,-0.39979 -0.88981,-0.62907 -0.57863,-0.39779 -0.83869,-0.10002 -0.93465,-0.11385 -0.0202,-0.0729 0.20909,-1.45961 -0.12476,-1.60533" />
<path id="om" fill-rule="evenodd" clip-rule="evenodd" fill="#E0E0E0" d="m 160.98698,63.947556 c 3.26401,-0.750292 5.30727,-1.53649 6.78555,-2.339303 0.60457,-1.153074 -0.0458,0.663013 0.24338,-0.621132 0.23625,-1.048935 0.39973,-2.095892 0.63775,-3.095444 0.16469,-0.691552 0.55063,-1.561054 0.15068,-2.21958 -0.28803,-0.473742 -0.87214,-0.878655 -1.05383,-1.402003 -0.2285,-0.657906 1.01384,-2.922132 0.40275,-3.280539 0.27438,-0.326783 0.81292,-0.04403 1.05103,-0.356857 0.26137,-0.343215 -0.15905,-0.22881 -0.24493,-0.401812 -0.22819,-0.460721 -0.41049,-1.472383 -0.10324,-1.939614 0.14324,-0.218268 0.43498,0.117195 0.38972,0.289888 -0.14231,0.53854 0.4015,-0.04527 0.48769,-0.127117 0.26602,-0.253613 0.26354,-0.210827 0.4291,0.14696 0.27531,0.594657 0.63558,1.156761 1.07429,1.644145 0.69356,0.77045 1.66399,1.047316 2.65177,1.245742 0.46228,0.0927 0.8551,0.274696 1.32574,0.327403 0.62938,0.07069 0.97353,0.83711 1.33379,1.264965 0.29082,0.345076 0.48832,0.76177 0.7782,1.091963 0.30167,0.343835 0.46103,0.358097 0.85944,0.517148 0.93415,0.373289 -0.12247,1.699022 -0.30849,2.246863 -0.35159,1.034916 -1.46029,1.575006 -1.76072,2.683711 -0.071,0.261674 -0.16743,1.018483 -0.58226,0.893847 -0.32833,-0.09828 -0.26446,-0.724565 -0.68426,-0.463821 -0.50071,0.30322 -0.47343,1.393012 -0.60241,1.841021 -0.16897,0.585666 0.022,1.039566 0.17672,1.60694 0.12619,0.463821 0.20556,0.814476 -0.35778,0.831529 -0.90532,0.02697 -1.90117,0.293918 -2.12409,1.269926 -0.0874,0.38352 -0.15719,0.805175 -0.39809,1.129167 -0.29981,0.403363 -0.89726,0.38135 -1.37131,0.417005 -0.5742,0.04278 -0.80425,0.136107 -1.14126,0.588457 -0.32647,0.437777 -0.1144,0.521178 -0.14169,1.021273 -0.0217,0.397782 -0.42816,0.68643 -0.74844,0.84238 -0.1544,0.07472 -0.30973,0.175173 -0.46754,0.05085 -0.27252,-0.214858 -0.4973,-0.156261 -0.83556,-0.156261 -0.97941,0 -1.83652,0.950333 -2.824,0.92243 -0.63961,-0.01829 -0.35236,-1.584056 -1.0391,-1.659086 0.29113,-0.30384 -0.41949,-1.372239 -0.56396,-1.639804 -0.50537,-0.933842 -1.10341,-2.171626 -1.43453,-3.181118 m 8.04738,-18.685423 c 0.0642,-0.179513 0.14572,-0.350346 0.24462,-0.513117 0.21083,0.235631 0.4136,-0.08495 0.31345,-0.290508 0.18107,0.09797 0.54474,0.714023 0.0899,0.602719 0.29237,0.203076 0.0787,1.447579 -0.244,1.390221 -0.4384,-0.07751 0.15533,-1.160791 -0.40398,-1.189315" />
<path id="tn" fill-rule="evenodd" clip-rule="evenodd" fill="#E0E0E0" d="m 57.477787,23.822268 c 0.05333,-0.262914 0.299499,-0.363057 0.490484,-0.508466 0.297329,-0.22633 0.322102,-0.429025 0.651086,-0.678679 0.262666,-0.199328 0.460534,-0.572273 0.562072,-0.902856 0.203852,-0.663512 0.146959,-1.179959 0.179823,-1.816509 0.02077,-0.400836 -0.231879,-0.749368 -0.178242,-1.151491 0.06077,-0.456689 0.567684,-1.324803 -0.164321,-1.482613 0.263224,-0.30353 0.6917,-0.459481 0.894777,-0.819438 0.07503,-0.133007 0.02697,-0.360887 0.209587,-0.413284 0.200596,-0.05736 0.326163,-6.2e-4 0.485523,-0.169282 0.346626,-0.367088 0.707823,-0.529859 1.194587,-0.669067 0.226019,-0.06449 0.53637,-0.234391 0.776961,-0.138278 0.285547,0.114405 0,0.252683 0.03193,0.467851 0.237801,0 0.294229,-0.118436 0.155021,-0.312521 0.436227,0.09487 0.561173,0.02852 0.737896,0.424135 0.07782,0.173933 -0.164321,0.190675 0.07069,0.356237 0.179824,0.126807 0.208968,0.347245 0.04124,0.492034 0.01364,-0.01426 0.200596,0.205557 0.391271,0.127117 0.259194,-0.106964 0.478082,-0.318412 0.68953,-0.496685 0.08247,-0.06945 0.368328,-0.377009 0.501956,-0.316241 0.319651,0.145719 0.277176,0.46072 0.132387,0.723014 -0.277797,0.503196 -1.227761,0.985929 -1.259695,1.558264 -0.02356,0.429716 0.23036,0.947484 0.618531,1.157071 0.587527,0.316551 0.567994,0.331433 0.707823,1.005461 0.176103,0.848891 -0.417005,1.731267 -1.06902,2.246244 -0.648295,0.511877 -1.639805,0.800215 -0.997091,1.794205 0.141069,0.218578 0.329574,0.424445 0.570785,0.534199 0.268495,0.122156 0.377629,-0.04589 0.624732,-0.01147 0.08123,0.01116 0.132697,0.408943 0.182304,0.492964 0.121225,0.204937 0.46072,-0.399332 0.645814,-0.332053 0.252993,0.09208 0.08216,0.297639 0.158121,0.468781 0.105723,0.237801 0.470021,0.453279 0.08991,0.491104 0.199977,0.213618 0.635893,-0.02139 0.822538,0.22416 0.15595,0.205557 -0.101693,1.004531 -0.04558,1.30465 0.08402,0.449869 0.412664,0.641741 -0.08049,0.936924 -0.487755,0.291959 -1.485869,0.615765 -1.776036,1.017572 -0.165871,0.132077 -0.107832,0.512568 -0.339525,0.606535 -0.492654,0.199812 -0.960692,0.362413 -0.765769,1.113259 0.155826,0.600245 0.38693,1.07212 0.03937,1.660887 -0.405223,0.68674 -0.76146,0.949344 -1.473003,1.261555 -0.170212,-1.120486 -0.491104,-2.199449 -0.711543,-3.308132 -0.228189,-1.147668 -0.343865,-1.809552 -1.312122,-2.347627 -0.452442,-0.251424 -0.655488,-0.555323 -0.769273,-1.057588 -0.09983,-0.441808 -0.299809,-0.75485 -0.701311,-0.990791 -0.200596,-0.118125 -0.393969,-0.213987 -0.527286,-0.424814 -0.136418,-0.216098 -0.08954,-0.508832 -0.226113,-0.727374 -0.283687,-0.454026 -0.439854,-0.935504 -0.260341,-1.388963" />
<path id="eg" fill-rule="evenodd" clip-rule="evenodd" fill="#E0E0E0" d="m 96.676195,34.69352 c -0.44181,-0.7072 0.46816,-1.44811 0.35624,-2.17338 -0.12017,-0.7786 -0.82958,-1.32225 0.29144,-2.24655 0.0236,0.56737 0.68487,0.36429 1.02778,0.26229 0.62659,-0.18633 1.14002,0.0214 1.762575,0.084 0.68116,0.0682 1.33473,0.21982 1.99418,0.39561 0.27873,0.0744 0.32306,0.37763 0.60613,0.46506 0.25144,0.0775 0.44274,0.0462 0.69201,0.0198 0.16742,-0.018 0.24493,0.24369 0.43375,0.28276 0.20679,0.0428 0.41793,0.0437 0.62659,0.0645 0.67062,0.0663 1.11832,0.48707 1.74739,0.59218 0.6083,0.10169 1.18993,-0.30787 1.62616,-0.67992 0.22633,-0.19285 0.43716,-0.40244 0.64457,-0.61543 0.17766,0.13858 0.3116,0.2812 0.53637,0.24555 -0.12835,-0.0645 -0.10045,-0.10138 -0.26973,-0.0893 0.21982,-0.11658 0.43933,-0.32833 0.49296,-0.5804 0.3798,0.22695 0.73697,-0.18075 1.11615,-0.17796 -0.25485,0.1172 -0.49948,0.26291 -0.69418,0.46847 0.0673,-0.0397 1.6057,-0.50474 0.87121,-0.55807 0.5435,-0.17983 0.89633,0.44243 1.41844,0.36833 0.24927,-0.0353 0.48428,-0.28183 0.74875,-0.18944 0.24586,0.0856 0.36181,0.44181 0.57977,0.58009 -0.22075,-0.1544 -0.44677,-0.49359 -0.73789,-0.51312 0.0862,0.23129 -0.23253,0.66876 0.14385,0.75867 0.40926,0.0977 0.21765,0.19905 0.48243,0.44646 0,-0.0911 0.73014,-0.39933 0.20152,-0.64737 0.56242,0.13084 0.74937,0.64985 1.40914,0.59218 0.21393,-0.0186 0.84548,-0.41359 0.73324,0.0552 0.40895,-0.25981 0.86781,-0.1082 1.30713,-0.24059 0.38694,-0.11627 0.77421,-0.26775 1.08456,-0.53718 l 1.88489,4.97593 c -0.47653,0.60613 -0.37007,1.72703 -0.67329,2.44508 -0.17734,0.41979 -0.1699,0.68147 -0.16525,1.12514 0.004,0.37949 -0.47839,0.74657 -0.35964,1.11645 -0.23036,-0.213 -0.53854,-0.30911 -0.79278,-0.48707 -0.32275,-0.22602 -0.54846,-0.55528 -0.76952,-0.8737 -0.27996,-0.40367 -1.09878,-0.6672 -0.98004,-1.27333 0.11968,-0.61078 -0.4694,-1.0343 -0.77045,-1.46463 -0.41638,-0.59435 -0.7134,-1.28667 -0.88206,-1.99542 -0.27966,0.30043 -0.5773,0.95585 -0.28555,1.29876 0.49886,0.58752 0.44708,1.30868 0.86532,1.91574 0.36213,0.52583 0.72922,1.16947 1.18188,1.6181 0.20028,0.19842 0.42878,0.36926 0.6114,0.58535 0.0955,0.11317 0.48893,0.76177 0.0146,0.40802 0.38383,0.2995 0.0663,0.68085 0.30973,0.92764 0.32678,0.33112 0.50041,0.68209 0.67155,1.0994 0.084,0.20525 0.22261,0.38104 0.34197,0.56552 0.0911,0.14106 -0.0899,0.32089 -0.098,0.45886 -0.0112,0.18447 0.2902,0.45824 0.37236,0.61729 0.18881,0.36398 0.39468,0.71929 0.58536,1.08266 0.62597,1.19365 1.25783,2.36623 1.85032,3.57818 0.23191,0.47405 0.57264,0.81354 0.86377,1.23954 0.27098,0.39654 0.74596,0.51932 0.99709,0.92268 -0.23749,0.0127 -0.47715,-0.0285 -0.69108,-0.13394 -0.15657,0.64768 -0.081,1.63656 0.24958,2.01836 0.31472,0.36349 -0.4117,1.09339 -0.85478,1.11491 -0.21951,0.0107 -0.30288,-0.14914 -0.52412,0.0976 -0.17428,0.19439 -0.26617,0.52771 -0.34554,0.77698 -0.0911,0.28803 -0.22664,0.54257 -0.54474,0.61667 -0.25734,0.0598 -0.72041,0.007 -0.85714,0.30235 -0.24989,0.5404 -0.0974,1.17105 -0.85919,1.11056 -0.88749,-0.0705 -1.33872,-0.79005 -1.80629,-0.77047 -1.54044,0.0645 -2.42461,0.205 -3.63219,10e-4 0.0347,-0.12123 0.17486,-0.37764 0.0884,-0.50227 -0.21796,-0.31531 -0.38507,0.2564 -0.45731,0.35965 -0.28927,0.41359 -1.73467,0.16494 -2.19787,0.16494 l -12.429255,-0.0268 -0.44305,-16.79963 c -0.0465,-0.78533 -0.0273,-1.60911 -0.1358,-2.387 -0.093,-0.66907 -0.26477,-1.65872 -0.56582,-2.26175" />
<path id="sa" fill-rule="evenodd" clip-rule="evenodd" fill="#E0E0E0" d="m 139.85245,71.158311 c 0.0301,-0.281517 -0.14169,-0.948724 -0.39499,-1.109945 -0.12898,-0.08216 -0.75371,-1.394873 -0.71775,-0.76146 -0.058,-1.134438 -0.84424,-1.426186 -1.4699,-2.194157 -0.23687,-0.290818 -0.5711,-0.710613 -0.68209,-1.066229 -0.14355,-0.45886 -0.40243,-0.589697 -0.63744,-0.962676 -0.13766,-0.218888 -0.0205,-0.409873 -0.17921,-0.634653 -0.11316,-0.159671 -0.30229,-0.667827 -0.37701,-0.872764 -0.0701,-0.191915 -0.11254,-0.394681 -0.20245,-0.579156 -0.0828,-0.169592 -0.25548,-0.193465 -0.33857,-0.342594 -0.0794,-0.143239 -0.003,-0.338565 -0.1113,-0.464131 -0.11131,-0.126807 -0.29299,-0.144479 -0.4136,-0.256713 -0.3029,-0.281827 -0.65356,-0.566755 -0.92113,-0.880826 -0.32461,-0.381349 -0.70503,-0.221679 -1.07119,-0.491414 -0.60737,-0.448318 -1.01135,-1.280777 -1.39301,-1.918221 -0.2223,-0.371118 -0.15843,-0.583496 -0.17703,-0.975077 -0.0205,-0.424135 -0.3274,-0.775101 -0.35903,-1.203887 -0.0415,-0.562724 0.1913,-1.122347 0.0794,-1.6829 -0.0512,-0.255474 -0.19067,-0.471572 -0.32771,-0.68705 -0.0719,-0.113475 -0.50816,-0.676198 -0.0158,-0.291438 -0.10821,-0.282757 -0.35407,-0.285857 -0.41794,-0.595588 -0.0574,-0.276866 -0.19315,-0.579776 -0.30136,-0.84114 -0.2995,-0.723945 -0.88392,-1.217219 -1.43176,-1.738087 -0.39965,-0.37949 -0.79557,-0.439327 -1.28295,-0.572645 -0.20773,-0.05674 -0.30694,-0.452039 -0.36802,-0.620701 -0.13084,-0.361507 -0.38383,-0.60954 -0.61047,-0.910899 0.7844,-0.285857 -0.30818,-1.573456 -0.56427,-1.885046 -0.1727,-0.209278 -0.65729,-0.590628 -0.63652,-0.866874 0.0363,-0.475912 -0.57667,-0.750918 -0.78285,-1.179084 -0.62504,-1.29907 -1.61159,-2.378321 -2.30422,-3.652897 -0.21114,-0.388171 -0.44677,-0.986859 -0.91214,-1.118006 -0.21145,-0.05953 -1.04297,-0.197806 -1.05941,0.192535 -0.2781,-0.254233 0.17146,-0.922371 0.24959,-1.189316 0.1637,-0.559623 0.0329,-1.141789 0.12432,-1.706773 0.11586,-0.715734 0.004,-0.270231 0.10495,-0.696775 0.5342,0.158917 2.00395,0.553472 2.53691,0.437271 1.05879,-0.230843 1.04204,-1.770331 2.03696,-1.927211 0.37298,-0.05891 1.2885,0.03537 1.24854,-0.467542 -0.0912,-1.14697 0.40779,-0.802636 1.10207,-1.036794 -0.90613,-0.867955 -1.76816,-1.773174 -2.59706,-2.714094 1.60989,-0.336326 2.67854,-0.699046 4.5762,-1.712844 0.80384,0.154161 2.23756,0.241785 3.11885,0.649777 2.96132,1.370906 5.40041,3.466829 7.97096,5.422875 0.54443,0.414524 1.07429,0.825948 1.58245,1.282638 0.57884,0.519938 0.98118,0.493978 1.74388,0.567768 0.87928,0.08495 1.80577,0.209193 2.68535,0.290424 0.32276,0.03007 0.48212,-0.134558 0.83246,-0.05891 0.47343,0.102003 0.96454,0.159671 1.44665,0.203387 0.51095,0.04589 0.55125,0.639923 0.71434,1.016002 0.24152,0.558693 1.05537,0.205867 1.51733,0.246483 0.47778,0.04217 0.54009,0.301049 0.69635,0.69201 0.16898,0.423205 1.00919,0.962366 0.87866,1.437038 -0.0431,-0.07472 -0.0958,-0.141689 -0.15843,-0.200596 -0.14293,0.340114 0.19997,0.301359 0.15843,0.601478 0.006,0.0047 1.43611,0.137038 0.88982,0.557143 0.20958,0.06635 0.65449,1.139399 0.86811,0.53482 -0.14262,0.53823 1.14901,1.142809 1.44789,1.469902 -0.15936,-0.04775 -0.27811,-0.144479 -0.35655,-0.289578 0.007,0.593418 0.36709,0.602099 0.49483,1.078321 0.0747,0.279037 0.045,0.867804 -0.3612,0.503506 0.0369,0.316551 -0.0654,0.37949 0.2223,0.437777 0.0443,0.0087 0.42134,0.826258 0.44739,0.921131 -0.0837,-0.07224 -0.16525,-0.14665 -0.24525,-0.222919 0.24711,0.362437 0.68829,0.566133 0.88362,0.967326 0.19812,0.405533 0.25826,0.777582 0.49638,1.171643 0.18292,0.30322 0.44738,0.822848 0.82625,0.91586 0.17332,0.04247 0.80208,-0.121846 0.71155,0.220129 0.0663,-0.173623 0.21671,-0.237181 0.37856,-0.133938 -0.21176,0.258574 -0.40312,0.963649 0.31214,0.781035 -0.0471,0.01209 0.36591,0.817407 0.4056,0.874144 0.82468,0.935774 1.9371,2.581909 2.37426,2.759348 2.71707,0.303533 3.97345,0.451159 5.45172,0.780307 0.19269,-0.04614 0.36154,-0.161906 0.42324,-0.286638 0.32991,0.762622 1.07928,1.161737 1.20522,1.656856 0.11378,0.447361 0.0821,0.744417 -0.0352,1.204455 -0.39258,1.540427 -0.6088,4.314732 -1.17775,4.621278 -3.87368,2.087047 -8.72169,2.817385 -13.32523,3.580022 -0.59714,0.211448 -1.17152,0.481425 -1.71654,0.796832 -0.81957,0.474276 -1.61646,1.898983 -1.88235,2.749455 -0.12287,0.393026 -0.58536,0.823381 -1.01787,0.825241 -0.45204,0.0019 -0.53559,-0.732998 -0.90398,-0.856967 -0.41862,-0.140877 -0.7277,0.07305 -1.08862,0.02886 -0.55965,-0.0685 -1.30768,0.01944 -1.81073,-0.239391 -0.60426,-0.310927 -1.04951,-0.168234 -1.71889,-0.166914 -0.58629,0.0012 -1.20538,0.360106 -1.78909,0.352684 -0.72478,-0.0092 -0.83072,-0.56082 -1.20792,-0.46165 -0.50552,0.132908 -0.63961,0.796553 -0.66776,1.216062 -0.0279,0.413957 0.4902,0.654654 0.0515,0.953685 -0.0841,0.05736 -0.17191,0.643784 -0.80272,0.852385 -0.004,-0.0555 0.0324,-0.07055 0.0291,-0.124804" />
<path id="dj" fill-rule="evenodd" clip-rule="evenodd" fill="#E0E0E0" d="m 137.9956,85.58977 c 0,-0.7196 -0.27903,-1.43486 0.15719,-2.08533 0.32833,-0.48924 0.62907,-0.93322 0.91369,-1.44696 0.33236,-0.59993 0.49979,-0.27872 0.97539,-0.15099 0.24121,0.0645 0.22819,-0.31345 0.32275,-0.43839 0.14665,-0.19347 0.39995,-0.27005 0.60117,-0.38724 0.20742,0.45514 1.07739,1.30341 0.65822,1.83513 -0.21486,0.27283 -0.8861,0.58411 -1.20699,0.71061 -0.32927,0.1299 -0.37174,0.51932 -0.74751,0.57977 0.24648,0.31749 0.98221,-0.20555 1.33938,-0.0673 0.64581,0.25021 0.003,0.88207 -0.17022,1.23707 -0.25981,0.53574 -0.67278,-0.0229 -1.07615,0.0831 -0.41235,0.1082 -1.49191,0.64736 -1.76692,0.13052" />
<path id="ma" fill-rule="evenodd" clip-rule="evenodd" fill="#E0E0E0" d="m 9.9733647,40.96626 c 0.1072703,-0.11812 0.4554503,-0.67061 0.5779103,-0.71526 0.43871,-0.15967 0.91866,-0.18014 1.37224,-0.27997 0.84176,-0.1854 1.69531,-0.45142 2.33058,-1.06034 0.62287,-0.59713 1.27117,-1.06623 1.92318,-1.61965 0.62473,-0.52986 1.10188,-1.23675 1.60198,-1.88008 0.33918,-0.43654 1.11832,-1.69344 0.46103,-2.16967 -0.25454,-0.18416 -0.43344,-0.19036 -0.27067,-0.53172 0.16154,-0.33887 0.14448,-0.67775 0.16278,-1.04731 0.0509,-1.02903 0.42258,-1.4882 1.05227,-2.25493 0.35996,-0.4384 0.26106,-0.88454 0.41236,-1.38867 0.10975,-0.36492 0.40956,-0.64767 0.6824,-0.89602 0.58287,-0.5311 1.04483,-1.18497 1.77622,-1.51547 0.79618,-0.35996 1.64259,-0.64117 2.40343,-1.0743 1.50525,-0.85726 2.2295,-2.94538 2.79967,-4.48225 0.0552,-0.14851 0.25516,-0.90625 0.48459,-0.883 0.28152,0.0288 0.56552,-0.0853 0.80518,-0.21392 0.30291,-0.16247 0.36088,0.23966 0.44925,0.45607 0.17021,0.41793 0.39716,0.70193 0.76549,0.9636 0.76921,0.54629 1.40727,0.39344 2.28685,0.28803 0.72922,-0.0871 1.65655,0.35624 2.10022,-0.50041 -0.007,0.27904 0.0698,0.34849 0.10851,0.56025 0.0415,0.22695 0.4539,0.34166 0.093,-0.0245 0.19502,0.27036 0.54381,0.40833 0.85696,0.25238 0.31903,-0.15905 0.50908,0.16866 0.70565,0.35034 0.21083,0.19502 0.58721,0.30539 0.71309,0.5804 0.14386,0.31438 -0.16773,0.60241 0.26974,0.7813 -0.23687,0.18571 -0.15998,0.52676 -0.11503,0.77665 0.0713,0.39561 -0.0605,0.74348 -0.0155,1.12514 0.0363,0.30663 0.23501,0.50226 0.15874,0.83153 -0.11471,0.49513 -0.0583,0.67093 0.17766,1.10653 0.11998,0.22168 0.0112,0.41918 0.13114,0.62225 0.17828,0.30198 0.45762,0.42197 0.72085,0.63001 0.48521,0.38352 -0.9664,1.02034 -0.19006,1.31457 -0.80145,0.20586 -3.61135,-0.75805 -4.0237,0.33019 -0.21517,0.56831 -0.77542,0.78471 -1.38216,0.73387 -0.45886,-0.0388 -1.02345,0.61698 -0.3981,0.78874 -0.52955,0.48428 0.44243,0.843 0.21052,1.07274 -0.26477,0.2626 -0.7289,0.16773 -1.01507,0.37639 -0.2995,0.21889 -0.62814,0.54691 -0.98283,0.66938 -0.26819,0.0924 -0.5711,0.0843 -0.82285,0.22509 -0.488,0.27252 -0.68457,0.84393 -1.04235,1.24388 -0.40988,0.45855 -1.16762,0.63775 -1.76351,0.66132 -0.4477,0.0174 -0.92951,-0.17022 -1.11026,0.36336 -0.19285,0.56924 -0.75247,0.14293 -1.20048,0.17611 -0.31593,0.0232 -0.49978,0.18106 -0.70317,0.40057 -0.20649,0.22323 -0.45018,0.1761 -0.70751,0.27903 -0.29702,0.11875 -0.48025,0.41267 -0.71743,0.61047 -0.25207,0.21021 -0.56428,0.34105 -0.82192,0.54971 -0.50258,0.40708 -0.94315,0.4663 -0.89292,1.17071 0.0499,0.70069 -0.0242,1.47734 -0.10262,2.174 -0.0335,0.29516 -9.36199,0.0729 -10.3153603,0.0729" />
<path id="lb" fill-rule="evenodd" clip-rule="evenodd" fill="#E0E0E0" d="m 119.53549,26.411727 c 0.49297,-0.574815 0.47685,-1.611901 0.8954,-2.258025 0.20742,-0.319962 -0.0357,-0.752159 0.20246,-1.060649 0.18571,-0.239971 0.69325,-0.505366 0.52986,-0.878035 0.19129,0.04031 0.48087,0.121846 0.6641,0.01271 0.42135,-0.251133 0.12371,0.22695 0.18572,0.370808 -0.008,-0.01922 0.27748,0.08743 0.30725,0.116266 0.21237,0.204316 0.0927,0.15905 0.2533,0.453589 0.34228,0.626592 -0.75123,0.727045 -0.31593,1.256284 -0.44305,-0.132387 -1.19707,0.177343 -0.66938,0.669688 -0.19656,0.04526 -0.86377,0.69263 -0.89323,0.892916 -0.0484,-0.02573 -0.0856,-0.06294 -0.1113,-0.111614 -0.0735,0.144169 -0.0779,0.315156 -0.15657,0.46227 -0.16686,0.311861 -0.64904,-0.121833 -0.89168,0.07379" />
<path id="kw" fill-rule="evenodd" clip-rule="evenodd" fill="#E0E0E0" d="m 146.4129,37.10408 c 0.99328,-0.361693 0.53194,-2.37532 1.56788,-2.566205 0.40051,-0.0738 0.97176,-0.111116 1.4978,0.323062 0.13614,0.112368 0.48615,0.83959 0.34787,1.015693 -0.29516,-0.413904 -0.71495,0.288027 -0.87121,0.491104 0.45328,-0.06015 0.95771,0.115955 1.06964,0.605819 0.13641,0.595588 0.59162,1.126247 0.79221,1.727726 -0.38395,-0.220461 -1.34058,0.150769 -1.71706,-0.113345 -0.29383,-0.206134 -0.32976,-0.65257 -0.44615,-0.961126 -0.15558,-0.412493 -1.64012,-0.301681 -2.24098,-0.522728" />
<path id="qa" fill-rule="evenodd" clip-rule="evenodd" fill="#E0E0E0" d="m 156.94808,47.350623 c -0.0136,-0.120916 -0.1885,-0.863773 0.15502,-0.513427 -0.0195,-0.120296 -0.0983,-0.788123 0.11472,-0.223229 0.0171,-0.563034 0.21765,-2.049058 0.99337,-1.229621 0.19439,0.205557 0.56768,0.349726 0.56954,0.672168 0,0.22509 -0.10975,0.367708 -0.16091,0.573265 -0.0447,0.177963 0.0642,0.409254 0.0815,0.586907 0.0171,0.177653 0.20587,0.181063 0.25547,0.334844 0.0819,0.250822 0.0211,0.478392 -0.0803,0.709992 -0.17548,0.400883 -0.11781,0.693561 -0.55745,0.825328 -0.36523,0.109755 -0.69418,0.400263 -0.9388,-0.136108 -0.22323,-0.489244 -0.31624,-1.07801 -0.4322,-1.600119" />
<path id="ps" fill-rule="evenodd" clip-rule="evenodd" fill="#E0E0E0" d="m 119.42388,28.822588 c 0.11369,-0.26581 0.1521,-1.012084 0.60675,-0.922681 0.15768,0.03101 0.61859,0.301617 0.67644,0.454786 0.16811,0.444986 0.12476,1.069575 0.10979,1.553347 -0.0102,0.332338 -0.0152,0.690627 -0.19024,0.772664 l -0.64929,0.30402 c -0.30815,0.144274 -0.61574,0.154505 -0.48366,-0.328848 0.035,-0.128047 0.49076,-0.802093 0.55587,-0.780081 -0.13518,-0.0462 -0.48525,0.08767 -0.56676,-0.148199 -0.14395,-0.416611 0,-0.730034 -0.0589,-0.905008 m -1.5192,2.321583 c 0.21517,-0.212378 0.41545,-0.445838 0.55838,-0.714333 0.26695,0.168662 -0.29981,0.889444 -0.42475,1.019351 -0.053,-0.0927 -0.0977,-0.204255 -0.13363,-0.305018" />
<path id="bh" fill-rule="evenodd" clip-rule="evenodd" fill="#E0E0E0" d="m 155.1716,44.785291 c 0.071,0.14851 0.10107,0.30446 0.0896,0.468781 -0.0416,0.214238 0.21827,0.368329 0.26663,0.558073 0.0918,-0.23563 0.10263,-1.516718 -0.35623,-1.026854" />
<path id="ae" fill-rule="evenodd" clip-rule="evenodd" fill="#E0E0E0" d="m 158.98366,50.028532 c 0.15161,-0.100143 0.32132,0.02567 0.28691,0.244873 0.0726,-0.06883 0.0368,-0.202087 0.11273,-0.267196 0.14479,0.211448 0.0164,0.517148 0.17982,0.714334 0.15812,0.190675 0.52397,0.146649 0.73821,0.134247 0.27842,-0.01643 0.51312,-0.06046 0.72735,-0.252993 0.0974,-0.08743 0.2099,-0.343215 0.34229,-0.372048 0.14355,-0.03193 0.50133,0.184164 0.67775,0.187884 0.28926,0.0065 0.57729,0.04 0.86625,0.02976 0.78533,-0.0279 1.32697,0.333604 2.09618,-0.128357 -0.0697,-0.107584 -0.14416,-0.211757 -0.22322,-0.312521 0.24214,-0.09146 0.20865,0.199976 0.39995,0.178584 0.27841,-0.031 0.51466,-0.366778 0.62814,-0.589387 0.3088,-0.60706 0.34818,-0.952755 0.88858,-1.403864 0.52613,-0.439327 0.74068,-1.231481 1.23799,-1.641664 0.55063,-0.4539 0.88113,-0.575126 1.03987,-1.320773 0.4012,0.02046 0.22819,0.600859 0.23129,0.845791 0.006,0.4632 0.50878,0.228499 0.56893,0.743167 0.0601,0.516217 0.4126,1.19116 0.007,1.590625 -0.86669,0.852531 -0.38547,0.109386 -0.60948,-0.105947 -0.28415,-0.273139 -0.45923,0.113438 -0.50785,0.497597 -0.0214,0.168262 -0.0139,0.184189 0.0118,0.363181 0.0276,0.191605 0.0842,0.554514 0.12683,0.759305 0.13996,0.671765 0.60945,0.347112 0.42792,0.650942 -0.19889,0.332872 -0.85518,0.106595 -1.10849,0.408265 0.58344,0.324826 -0.37248,2.130415 -0.44546,3.071488 0.008,0.23045 -0.2419,0.452618 -0.7761,0.327362 -0.65728,-0.15409 -1.33689,-0.216098 -2.0041,-0.315001 -0.69976,-0.103554 -1.39921,-0.206177 -2.10114,-0.293608 -0.5156,-0.06449 -0.88166,-0.08076 -0.95471,-0.133771 -0.55857,-0.405381 -0.91198,-0.883249 -1.32514,-1.425538 -0.24763,-0.325034 -0.76968,-0.928391 -1.05427,-1.326868 -0.2684,-0.375791 -0.35419,-0.699892 -0.38584,-0.852348" />

</svg>